<mxfile host="app.diagrams.net" modified="2021-09-22T00:25:45.747Z" agent="5.0 (Windows NT 10.0; Win64; x64) AppleWebKit/537.36 (KHTML, like Gecko) Chrome/93.0.4577.82 Safari/537.36" etag="6RqBOLqfbOhS5qT-R_l-" version="15.2.9" type="github">
  <diagram id="hLjnK3qh7IBknBOkLW0P" name="Page-1">
    <mxGraphModel dx="432" dy="399" grid="1" gridSize="10" guides="1" tooltips="1" connect="1" arrows="1" fold="1" page="1" pageScale="1" pageWidth="850" pageHeight="1100" math="0" shadow="0">
      <root>
        <mxCell id="0" />
        <mxCell id="1" parent="0" />
        <mxCell id="0pCf6pjN5j44nt5l2hku-1" value="BUILDING" style="whiteSpace=wrap;html=1;align=center;" vertex="1" parent="1">
          <mxGeometry x="250" y="150" width="100" height="40" as="geometry" />
        </mxCell>
        <mxCell id="0pCf6pjN5j44nt5l2hku-2" value="ROOM" style="whiteSpace=wrap;html=1;align=center;" vertex="1" parent="1">
          <mxGeometry x="250" y="310" width="100" height="40" as="geometry" />
        </mxCell>
        <mxCell id="0pCf6pjN5j44nt5l2hku-3" value="Name" style="ellipse;whiteSpace=wrap;html=1;align=center;fontStyle=4;" vertex="1" parent="1">
          <mxGeometry x="250" y="80" width="100" height="40" as="geometry" />
        </mxCell>
        <mxCell id="0pCf6pjN5j44nt5l2hku-4" value="" style="endArrow=none;html=1;rounded=0;entryX=0.5;entryY=1;entryDx=0;entryDy=0;exitX=0.5;exitY=0;exitDx=0;exitDy=0;" edge="1" parent="1" source="0pCf6pjN5j44nt5l2hku-1" target="0pCf6pjN5j44nt5l2hku-3">
          <mxGeometry relative="1" as="geometry">
            <mxPoint x="330" y="360" as="sourcePoint" />
            <mxPoint x="490" y="360" as="targetPoint" />
          </mxGeometry>
        </mxCell>
        <mxCell id="0pCf6pjN5j44nt5l2hku-5" value="CONSIST_OF" style="shape=rhombus;perimeter=rhombusPerimeter;whiteSpace=wrap;html=1;align=center;" vertex="1" parent="1">
          <mxGeometry x="240" y="220" width="120" height="60" as="geometry" />
        </mxCell>
        <mxCell id="0pCf6pjN5j44nt5l2hku-6" value="" style="shape=link;html=1;rounded=0;exitX=0.5;exitY=1;exitDx=0;exitDy=0;entryX=0.5;entryY=0;entryDx=0;entryDy=0;" edge="1" parent="1" source="0pCf6pjN5j44nt5l2hku-1" target="0pCf6pjN5j44nt5l2hku-5">
          <mxGeometry relative="1" as="geometry">
            <mxPoint x="330" y="310" as="sourcePoint" />
            <mxPoint x="490" y="310" as="targetPoint" />
          </mxGeometry>
        </mxCell>
        <mxCell id="0pCf6pjN5j44nt5l2hku-7" value="1" style="resizable=0;html=1;align=right;verticalAlign=bottom;" connectable="0" vertex="1" parent="0pCf6pjN5j44nt5l2hku-6">
          <mxGeometry x="1" relative="1" as="geometry" />
        </mxCell>
        <mxCell id="0pCf6pjN5j44nt5l2hku-8" value="" style="shape=link;html=1;rounded=0;entryX=0.5;entryY=1;entryDx=0;entryDy=0;exitX=0.5;exitY=0;exitDx=0;exitDy=0;" edge="1" parent="1" source="0pCf6pjN5j44nt5l2hku-2" target="0pCf6pjN5j44nt5l2hku-5">
          <mxGeometry relative="1" as="geometry">
            <mxPoint x="280" y="280" as="sourcePoint" />
            <mxPoint x="440" y="280" as="targetPoint" />
          </mxGeometry>
        </mxCell>
        <mxCell id="0pCf6pjN5j44nt5l2hku-9" value="N" style="resizable=0;html=1;align=right;verticalAlign=bottom;" connectable="0" vertex="1" parent="0pCf6pjN5j44nt5l2hku-8">
          <mxGeometry x="1" relative="1" as="geometry">
            <mxPoint y="20" as="offset" />
          </mxGeometry>
        </mxCell>
        <mxCell id="0pCf6pjN5j44nt5l2hku-10" value="&lt;u&gt;R-ID&lt;/u&gt;" style="ellipse;whiteSpace=wrap;html=1;align=center;" vertex="1" parent="1">
          <mxGeometry x="425" y="210" width="100" height="40" as="geometry" />
        </mxCell>
        <mxCell id="0pCf6pjN5j44nt5l2hku-11" value="" style="endArrow=none;html=1;rounded=0;entryX=0;entryY=0.5;entryDx=0;entryDy=0;exitX=1;exitY=0.5;exitDx=0;exitDy=0;" edge="1" parent="1" source="0pCf6pjN5j44nt5l2hku-2" target="0pCf6pjN5j44nt5l2hku-10">
          <mxGeometry relative="1" as="geometry">
            <mxPoint x="310.0000000000001" y="160" as="sourcePoint" />
            <mxPoint x="310.0000000000001" y="130" as="targetPoint" />
          </mxGeometry>
        </mxCell>
        <mxCell id="0pCf6pjN5j44nt5l2hku-12" value="Function" style="ellipse;whiteSpace=wrap;html=1;align=center;" vertex="1" parent="1">
          <mxGeometry x="425" y="260" width="100" height="40" as="geometry" />
        </mxCell>
        <mxCell id="0pCf6pjN5j44nt5l2hku-13" value="" style="endArrow=none;html=1;rounded=0;entryX=0;entryY=0.5;entryDx=0;entryDy=0;exitX=1;exitY=0.5;exitDx=0;exitDy=0;" edge="1" parent="1" source="0pCf6pjN5j44nt5l2hku-2" target="0pCf6pjN5j44nt5l2hku-12">
          <mxGeometry relative="1" as="geometry">
            <mxPoint x="360.0000000000001" y="340" as="sourcePoint" />
            <mxPoint x="434.9999999999999" y="300" as="targetPoint" />
          </mxGeometry>
        </mxCell>
        <mxCell id="0pCf6pjN5j44nt5l2hku-14" value="Length" style="ellipse;whiteSpace=wrap;html=1;align=center;" vertex="1" parent="1">
          <mxGeometry x="425" y="310" width="100" height="40" as="geometry" />
        </mxCell>
        <mxCell id="0pCf6pjN5j44nt5l2hku-15" value="Width" style="ellipse;whiteSpace=wrap;html=1;align=center;" vertex="1" parent="1">
          <mxGeometry x="425" y="360" width="100" height="40" as="geometry" />
        </mxCell>
        <mxCell id="0pCf6pjN5j44nt5l2hku-16" value="" style="endArrow=none;html=1;rounded=0;entryX=0;entryY=0.5;entryDx=0;entryDy=0;exitX=1;exitY=0.5;exitDx=0;exitDy=0;" edge="1" parent="1" source="0pCf6pjN5j44nt5l2hku-2" target="0pCf6pjN5j44nt5l2hku-14">
          <mxGeometry relative="1" as="geometry">
            <mxPoint x="360.0000000000001" y="340" as="sourcePoint" />
            <mxPoint x="434.9999999999999" y="350" as="targetPoint" />
          </mxGeometry>
        </mxCell>
        <mxCell id="0pCf6pjN5j44nt5l2hku-17" value="" style="endArrow=none;html=1;rounded=0;entryX=0;entryY=0.5;entryDx=0;entryDy=0;exitX=1;exitY=0.5;exitDx=0;exitDy=0;" edge="1" parent="1" source="0pCf6pjN5j44nt5l2hku-2" target="0pCf6pjN5j44nt5l2hku-15">
          <mxGeometry relative="1" as="geometry">
            <mxPoint x="370.0000000000001" y="350" as="sourcePoint" />
            <mxPoint x="444.9999999999999" y="360" as="targetPoint" />
          </mxGeometry>
        </mxCell>
        <mxCell id="0pCf6pjN5j44nt5l2hku-18" value="Year" style="ellipse;whiteSpace=wrap;html=1;align=center;" vertex="1" parent="1">
          <mxGeometry x="360" y="90" width="100" height="40" as="geometry" />
        </mxCell>
        <mxCell id="0pCf6pjN5j44nt5l2hku-19" value="" style="endArrow=none;html=1;rounded=0;entryX=0;entryY=1;entryDx=0;entryDy=0;exitX=0.5;exitY=0;exitDx=0;exitDy=0;" edge="1" parent="1" source="0pCf6pjN5j44nt5l2hku-1" target="0pCf6pjN5j44nt5l2hku-18">
          <mxGeometry relative="1" as="geometry">
            <mxPoint x="310.0000000000001" y="160" as="sourcePoint" />
            <mxPoint x="310.0000000000001" y="130" as="targetPoint" />
          </mxGeometry>
        </mxCell>
        <mxCell id="0pCf6pjN5j44nt5l2hku-21" value="Area" style="ellipse;whiteSpace=wrap;html=1;align=center;dashed=1;" vertex="1" parent="1">
          <mxGeometry x="425" y="410" width="100" height="40" as="geometry" />
        </mxCell>
        <mxCell id="0pCf6pjN5j44nt5l2hku-22" value="" style="endArrow=none;html=1;rounded=0;entryX=0;entryY=0;entryDx=0;entryDy=0;exitX=1;exitY=0.5;exitDx=0;exitDy=0;" edge="1" parent="1" source="0pCf6pjN5j44nt5l2hku-2" target="0pCf6pjN5j44nt5l2hku-21">
          <mxGeometry relative="1" as="geometry">
            <mxPoint x="360.0000000000001" y="340" as="sourcePoint" />
            <mxPoint x="434.9999999999999" y="450" as="targetPoint" />
          </mxGeometry>
        </mxCell>
      </root>
    </mxGraphModel>
  </diagram>
</mxfile>
